<svg id="Layer_2" data-name="Layer 2" xmlns="http://www.w3.org/2000/svg" xmlns:xlink="http://www.w3.org/1999/xlink" viewBox="0 0 256 256"><defs><style>.cls-1{fill:url(#linear-gradient);}.cls-2{fill:url(#linear-gradient-2);}.cls-3{fill:url(#radial-gradient);}.cls-4{fill:#ffeb3b;}</style><linearGradient id="linear-gradient" x1="18.1" y1="-13.37" x2="215.6" y2="331.13" gradientUnits="userSpaceOnUse"><stop offset="0" stop-color="#ffeb3b"/><stop offset="0.15" stop-color="#ffec3e"/><stop offset="0.28" stop-color="#fff049"/><stop offset="0.4" stop-color="#fff65a"/><stop offset="0.51" stop-color="#ffff72"/><stop offset="0.53" stop-color="#fcfc6d"/><stop offset="0.63" stop-color="#eae446"/><stop offset="0.73" stop-color="#dbd127"/><stop offset="0.82" stop-color="#d0c412"/><stop offset="0.92" stop-color="#cabc04"/><stop offset="1" stop-color="#c8b900"/></linearGradient><linearGradient id="linear-gradient-2" x1="69.52" y1="-42.85" x2="267.02" y2="301.65" xlink:href="#linear-gradient"/><radialGradient id="radial-gradient" cx="127.5" cy="168.5" r="223" gradientUnits="userSpaceOnUse"><stop offset="0" stop-color="#fff"/><stop offset="0.08" stop-color="#fff" stop-opacity="0.79"/><stop offset="0.17" stop-color="#fff" stop-opacity="0.61"/><stop offset="0.26" stop-color="#fff" stop-opacity="0.45"/><stop offset="0.36" stop-color="#fff" stop-opacity="0.31"/><stop offset="0.46" stop-color="#fff" stop-opacity="0.2"/><stop offset="0.56" stop-color="#fff" stop-opacity="0.11"/><stop offset="0.68" stop-color="#fff" stop-opacity="0.05"/><stop offset="0.81" stop-color="#fff" stop-opacity="0.01"/><stop offset="1" stop-color="#fff" stop-opacity="0"/></radialGradient></defs><title>Artboard 1</title><path class="cls-1" d="M0,109.48V244a12,12,0,0,0,12,12H244a12,12,0,0,0,12-12V109.48C221.84,121,177.05,128,128,128S34.16,121,0,109.48Z"/><path class="cls-2" d="M244,0H12A12,12,0,0,0,0,12v97.48C34.16,121,79,128,128,128s93.84-7,128-18.52V12A12,12,0,0,0,244,0Z"/><path d="M212.06,178.85l1.15.4-26,60.56q-2,.81-9.76,5a107.42,107.42,0,0,1-20.59,8.49Q147.06,256,133,256a117.93,117.93,0,0,1-29.2-3.51q-13.41-3.36-39.25-13.75-19.83-7.83-30.45-10.39-10.33-2.43-29.29-3.51l14-33L102,154.3l87.41-39.11Q170,109.93,152.8,103.72t-35-14.5q-17.71-8.3-33.7-17.53t-34.75-22Q13.69,80.79.48,90.91L0,90Q11.49,74.18,53.61,8.36L76.49,0q29.3,20.24,54.62,34.87a370.24,370.24,0,0,0,45.72,22.86q19.62,8,39.44,14A361.53,361.53,0,0,0,256,81.33Q243.37,94.82,228.14,110t-30.06,28.94q-2.88,1.33-10.1,4.18t-18.38,6.81q-11.16,4-19,6.54-9,3-18.9,6.47l-19.49,6.88q-9.57,3.38-20.58,7.42t-20.68,7.69q25.56,13.22,41.07,17a137,137,0,0,0,33.22,3.78Q186.89,205.69,212.06,178.85Z"/><path class="cls-3" d="M244,0H12A12,12,0,0,0,0,12v97.48C34.16,121,79,128,128,128s93.84-7,128-18.52V12A12,12,0,0,0,244,0Z"/><path class="cls-4" d="M100.94,207.84a13.28,13.28,0,0,1,3.41,2.13,11.48,11.48,0,0,1,2.45,3,9.63,9.63,0,0,1,1.43,6.71c-.07.35-.33,1.2-.78,2.53l-.92,2.86q-3.86-9.44-8.65-11.57a10.13,10.13,0,0,0-1.36,3.64A12.5,12.5,0,0,0,97,224a7.7,7.7,0,0,0,4.06,4.47,25.1,25.1,0,0,1-1.92,2.89c-.31.44-.63.89-.94,1.36a2.9,2.9,0,0,1-1,.1,9.5,9.5,0,0,1-2.77-2,12.11,12.11,0,0,1-2.57-3.25,11.7,11.7,0,0,0-3.2,5.68q-1.19,6.31,8.87,10a7.31,7.31,0,0,0,3.57.42,21.63,21.63,0,0,0,5.53-2q-1,2-1.62,3.27c-.41.82-.87,1.68-1.37,2.59s-.93,1.65-1.3,2.26q-3.84,1.56-9.33-.47a17.73,17.73,0,0,1-8.3-5.82,10.17,10.17,0,0,1-2-8.36,11.2,11.2,0,0,1,3-5.88,14.84,14.84,0,0,1,5.9-3.66,14,14,0,0,1,.19-3.18,25.84,25.84,0,0,1,3.47-8.93A14.56,14.56,0,0,1,100.94,207.84Z"/><path class="cls-4" d="M111.41,230l2.69-.55,2-.45-1.62,13.8-.61,5.43a30.55,30.55,0,0,0,2.08,2.35v.13a28.67,28.67,0,0,0-3,3.72,4.94,4.94,0,0,1-2.58-2.66,10.14,10.14,0,0,1-.56-4.72q.09-1.15.36-3.75C110.4,241.61,110.79,237.18,111.41,230Z"/><path class="cls-4" d="M119.24,242.48l3-3.59,3.61.42a3.39,3.39,0,0,1,2.47,1.25,4,4,0,0,1,.74,2.32,10.78,10.78,0,0,1-.12,1.42c-.1.68-.21,1.69-.32,3a9.23,9.23,0,0,1-2.8,1.55,8.19,8.19,0,0,1-1.86.2,4.1,4.1,0,0,1-.83-.1q1.31,2.32,2.55,2.34a3.32,3.32,0,0,0,2.67-1.55h.11c-.92,3.93-2.58,5.88-5,5.86a4.1,4.1,0,0,1-2.73-.77,4.58,4.58,0,0,1-1.28-2.15,19.22,19.22,0,0,1-.43-5.17l.09-3.24Zm4.05.23-.37,4.61c.78,0,1.62,0,2.51-.09,0-.83,0-1.23,0-1.19a4,4,0,0,0-.6-2.43A2,2,0,0,0,123.29,242.71Z"/><path class="cls-4" d="M135.44,239.15a15.43,15.43,0,0,1,3.87.63,4,4,0,0,1,2,1.91,7.4,7.4,0,0,1,.76,3.66,15.8,15.8,0,0,0-4,1.36c-.18-1.41-.7-2.29-1.57-2.64-.2,2.28-.31,3.85-.32,4.71a2.86,2.86,0,0,0,.36,1.56,3,3,0,0,0,1.22,1.07,3.59,3.59,0,0,0,1.57.51c.75,0,1.48-.57,2.17-1.78l.05.08a11.41,11.41,0,0,1-2,4.43,4,4,0,0,1-3.44,1.3,3.89,3.89,0,0,1-2.71-1.06,4.9,4.9,0,0,1-1.33-2.42,15.53,15.53,0,0,1-.29-3.72q0-2.38.24-5.92A36.06,36.06,0,0,1,135.44,239.15Z"/><path class="cls-4" d="M144.74,238.7l-.22-1.5c.1,0,.51-.23,1.23-.53q1.81-.79,2.7-1.23c0,.2.07.41.1.63.06.4.12,1.06.18,2a17.2,17.2,0,0,0,1.69-.41,8.08,8.08,0,0,0,1.13-.37c0,2.07.06,3.3,0,3.67a18.6,18.6,0,0,1-2.41.95c.2,1.85.34,3.11.43,3.78a4.88,4.88,0,0,0,.9,2.44,3,3,0,0,0,2,1l-1.62,5.51c-3-.32-4.74-2-5.17-5.11-.07-.51-.14-1.5-.22-3s-.16-2.57-.21-3.09A7.1,7.1,0,0,0,144,244l.93-3.76-.05-.37Z"/><path class="cls-4" d="M155.29,243.06l-.88-5.31,4-.93,1,4.15c.06-.91.1-1.78.12-2.63a8.8,8.8,0,0,1,.15-1.66,2.57,2.57,0,0,1,.57-1.16,2.5,2.5,0,0,1,1.15-.84,3.63,3.63,0,0,1,1.88-.12V237c0,1.34,0,2.83,0,4.48a8.26,8.26,0,0,0-2.42-.89,13.82,13.82,0,0,0-.69,3.36c.25,1.08.46,1.91.64,2.49a4.69,4.69,0,0,0,2.17-.18c-.1,1.58-.25,3.3-.47,5.21-1.8.66-2.93.93-3.39.77a4.29,4.29,0,0,1-1.61-1c-.6-.55-1.09-1.83-1.46-3.85C155.8,246.1,155.55,244.65,155.29,243.06Z"/><path class="cls-4" d="M165.75,237.84l.06-2.42a23.09,23.09,0,0,0,5.72-4.44l.42,3.27.14,1.41a4.79,4.79,0,0,0,.08.5c.06.41.13,1,.22,1.69.05.33.08.59.12.78l.51,3.26c.1.7.37,2.34.8,4.78-1.76.91-3.29,1.58-4.61,2.14-.07-1.6-.31-3.94-.7-7l-.65-4.67a2.64,2.64,0,0,1-1.15.62A3.45,3.45,0,0,1,165.75,237.84Zm2.17-14.72a1.9,1.9,0,0,1,1.84.53,3.68,3.68,0,0,1,1,2.28,4.53,4.53,0,0,1-.41,2.59,2.52,2.52,0,0,1-1.6,1.44,1.87,1.87,0,0,1-1.83-.58,3.61,3.61,0,0,1-1-2.22,4.51,4.51,0,0,1,.41-2.61A2.45,2.45,0,0,1,167.92,223.12Z"/><path class="cls-4" d="M176.88,227.26a16.3,16.3,0,0,1,3.76-1.47,3,3,0,0,1,2.4.69,5.69,5.69,0,0,1,1.67,3,22.58,22.58,0,0,0-3.33,3.37c-.55-1.21-1.26-1.75-2.16-1.61.43,2.22.74,3.73,1,4.53a2.22,2.22,0,0,0,.75,1.26,2.24,2.24,0,0,0,1.41.34,3.53,3.53,0,0,0,1.6-.36c.71-.38,1.22-1.31,1.54-2.8l.07,0a14.43,14.43,0,0,1-.69,5.18,5.17,5.17,0,0,1-2.69,2.89,4.07,4.07,0,0,1-2.94.59,3.37,3.37,0,0,1-1.87-1.54,12.67,12.67,0,0,1-1.27-3.29c-.4-1.48-.85-3.36-1.36-5.61A53.22,53.22,0,0,1,176.88,227.26Z"/></svg>