<svg xmlns="http://www.w3.org/2000/svg" viewBox="0 0 1000 1000"><defs><style>.cls-1{fill:#ffeb3b;}</style></defs><title>Artboard 1</title><g id="Layer_1" data-name="Layer 1"><path d="M828.35,698.63l4.48,1.58L731.49,936.78q-7.86,3.15-38.15,19.49-43,22.65-80.4,33.19Q574.42,1000,519.45,1000q-60.21,0-114.06-13.7Q353,973.13,252.06,932.56,174.65,902,133.13,892q-40.38-9.48-114.43-13.7L73.3,749.21l325-146.47L739.72,450q-75.56-20.55-142.86-44.79t-136.5-56.64Q391.18,316.12,328.72,280T193,193.89Q53.49,315.6,1.87,355.11L0,351.42Q44.88,289.78,209.42,32.67L298.8,0Q413.23,79,512.15,136.2t178.58,89.3Q767.38,256.58,844.8,280A1409.77,1409.77,0,0,0,1000,317.7q-49.37,52.69-108.83,112t-117.42,113q-11.22,5.27-39.46,16.33t-71.8,26.61q-43.56,15.54-74.23,25.55-35.16,11.6-73.86,25.29t-76.11,26.87q-37.4,13.17-80.4,29t-80.78,30Q377,774,437.55,788.72q59.08,14.76,129.76,14.76Q730,803.48,828.35,698.63Z"/></g><g id="Layer_3" data-name="Layer 3"><path class="cls-1" d="M394.28,811.88a50.56,50.56,0,0,1,13.33,8.32,45.27,45.27,0,0,1,9.6,11.74q7.91,13.57,5.55,26.22-.39,2.07-3,9.89l-3.59,11.16Q401.08,842.36,382.33,834a39.08,39.08,0,0,0-5.28,14.24q-2.7,14.44,1.86,26.6a30.19,30.19,0,0,0,15.86,17.44,100.33,100.33,0,0,1-7.49,11.29c-1.24,1.71-2.46,3.47-3.68,5.3-2.18.43-3.5.56-4,.39q-4.11-1.53-10.83-7.8a48.15,48.15,0,0,1-10-12.7Q348.34,900,346.29,911q-4.6,24.68,34.66,39.21a29,29,0,0,0,13.94,1.65q6.67-.86,21.58-7.92-3.86,8-6.3,12.8t-5.36,10.09q-2.93,5.29-5.1,8.84-15,6.11-36.44-1.84-21.25-7.87-32.41-22.74T323,918.45a43.92,43.92,0,0,1,11.71-23,57.86,57.86,0,0,1,23-14.33,54.55,54.55,0,0,1,.74-12.4A101,101,0,0,1,372,833.89Q381.91,817.95,394.28,811.88Z"/><path class="cls-1" d="M435.2,898.39l10.51-2.14,8-1.77-6.31,53.93L445,969.62q3.57,4.47,8.12,9.18l0,.51a108.25,108.25,0,0,0-11.65,14.53,19.31,19.31,0,0,1-10.09-10.4q-3-7.19-2.19-18.44.34-4.49,1.43-14.66Q431.58,940.53,435.2,898.39Z"/><path class="cls-1" d="M465.77,947.18l11.88-14,14.11,1.62q6.83.88,9.64,4.91a15.32,15.32,0,0,1,2.89,9,48.17,48.17,0,0,1-.45,5.54q-.6,4-1.27,11.89-7.21,5.18-10.95,6a31,31,0,0,1-7.24.81,17.24,17.24,0,0,1-3.26-.4q5.1,9.07,10,9.12,5.77.06,10.43-6H502q-5.37,23-19.54,22.87-7.35-.08-10.64-3a18.16,18.16,0,0,1-5-8.41q-1.75-5.34-1.68-20.2l.33-12.64Zm15.85.9-1.46,18c3,0,6.32-.09,9.82-.35.08-3.25.13-4.81.13-4.66q0-6.29-2.32-9.49A8.06,8.06,0,0,0,481.62,948.08Z"/><path class="cls-1" d="M529.05,934.17q10.59.75,15.13,2.47,4.85,1.88,8,7.46c2.06,3.82,3,8.59,2.94,14.31a62,62,0,0,0-15.58,5.28q-1.07-8.25-6.12-10.28-1.18,13.35-1.27,18.38a11.05,11.05,0,0,0,1.41,6.11,11.87,11.87,0,0,0,4.75,4.17,14,14,0,0,0,6.16,2q4.41.15,8.48-7l.2.3q-3.26,11.94-7.87,17.33t-13.43,5.06q-6.62-.24-10.58-4.15a19,19,0,0,1-5.19-9.43,60,60,0,0,1-1.15-14.54q.17-9.32.94-23.12A142.24,142.24,0,0,1,529.05,934.17Z"/><path class="cls-1" d="M565.39,932.43l-.86-5.87c.4-.21,2-.9,4.79-2.07q7.11-3.09,10.57-4.79c.14.76.27,1.58.39,2.45.22,1.55.45,4.15.71,7.79a62.39,62.39,0,0,0,6.57-1.58,33.09,33.09,0,0,0,4.45-1.45q.24,12.14.12,14.36a78.36,78.36,0,0,1-9.38,3.71q1.13,10.85,1.67,14.76.89,6.32,3.52,9.5c1.71,2.09,4.37,3.37,8,3.84l-6.33,21.55c-11.84-1.27-18.53-8-20.19-20q-.42-3-.87-11.66-.5-9-.82-12.06a28.38,28.38,0,0,0-5.14,2.25l3.63-14.72L566,937Z"/><path class="cls-1" d="M606.6,949.45l-3.45-20.74,15.76-3.64,3.92,16.21q.31-5.31.44-10.25a33.3,33.3,0,0,1,.59-6.48A10.58,10.58,0,0,1,626.1,920a9.73,9.73,0,0,1,4.5-3.25,14.47,14.47,0,0,1,7.34-.48V926q.09,7.83-.19,17.49-7.14-3.42-9.43-3.49-2.67,9-2.72,13.15,1.5,6.33,2.5,9.7a18.31,18.31,0,0,0,8.5-.67c-.38,6.15-1,12.88-1.83,20.32-7,2.58-11.46,3.63-13.27,3a16.61,16.61,0,0,1-6.27-4q-3.53-3.21-5.7-15Q608.1,958.75,606.6,949.45Z"/><path class="cls-1" d="M647.44,929.06l.24-9.45q10.08-5,22.38-17.36l1.62,12.81.54,5.5c.1.72.2,1.38.3,2,.24,1.59.54,3.8.9,6.61.16,1.26.3,2.28.44,3l2,12.72c.42,2.75,1.46,9.14,3.14,18.68-6.88,3.54-12.88,6.16-18,8.36q-.43-9.36-2.74-27.48l-2.53-18.22a10.64,10.64,0,0,1-4.49,2.41A14.65,14.65,0,0,1,647.44,929.06Zm8.48-57.51a7.45,7.45,0,0,1,7.2,2.1q3.27,3.08,4,8.9a17.37,17.37,0,0,1-1.6,10.1c-1.56,3.09-3.63,5-6.22,5.62s-5-.1-7.16-2.25a14.06,14.06,0,0,1-4-8.69,17.42,17.42,0,0,1,1.59-10.16C651.25,874.09,653.3,872.21,655.92,871.55Z"/><path class="cls-1" d="M691,887.74q10-4.92,14.67-5.74a11.43,11.43,0,0,1,9.36,2.7q4.41,3.66,6.55,11.69a88.06,88.06,0,0,0-13,13.16q-3.19-7.08-8.41-6.28,2.46,13,3.72,17.7a8.55,8.55,0,0,0,2.94,4.92,8.76,8.76,0,0,0,5.52,1.34,13.49,13.49,0,0,0,6.24-1.42q4.13-2.19,6-10.93l.27.17q.16,12.8-2.67,20.23c-1.86,4.94-5,8.34-10.53,11.28-4.12,2.19-8.32,3.31-11.47,2.3a13.1,13.1,0,0,1-7.32-6q-2.7-4.41-5-12.86-2.33-8.71-5.3-21.92A204,204,0,0,1,691,887.74Z"/></g></svg>